# xmcd
# 
# Track frame offsets:
#     183
#     10098
#     20663
#     31120
#     43003
#     55188
#     68463
#     79258
#     92420
#     104625
#     116720
#     131058
#     143035
#     155613
#     167683
#     178740
#     190380
#     202525
# 
# Disc length: 2843
# 
# Revision: 11
# Processed by: cddbd v1.5.2PL0 Copyright (c) Steve Scherf et al.
# Submitted via: fre:ac v1.0.17
# 
DISCID=ea0b1912
DTITLE=Chuck Berry - Blues Berry - The Blues Collection 3
DYEAR=1994
DGENRE=Rock and Roll
TTITLE0=Memphis, Tennessee
TTITLE1=Almost Grown
TTITLE2=Maybellene
TTITLE3=Johnny B. Goode
TTITLE4=No Particular Place To Go
TTITLE5=No Money Down
TTITLE6=Thirty Days
TTITLE7=Too Much Monkey Business
TTITLE8=You Can't Catch Me
TTITLE9=School Day (Ring! Ring! Goes The Bell)
TTITLE10=Sweet Little Sixteen
TTITLE11=Around And Around
TTITLE12=Carol
TTITLE13=Little Queenie
TTITLE14=Back In The USA
TTITLE15=Nadine (Is It You?)
TTITLE16=You Never Can Tell
TTITLE17=Promised Land
EXTD=
EXTT0=
EXTT1=
EXTT2=
EXTT3=
EXTT4=
EXTT5=
EXTT6=
EXTT7=
EXTT8=
EXTT9=
EXTT10=
EXTT11=
EXTT12=
EXTT13=
EXTT14=
EXTT15=
EXTT16=
EXTT17=
PLAYORDER=
